<?xml version="1.0" encoding="UTF-8"?>
<!DOCTYPE svg PUBLIC "-//W3C//DTD SVG 1.1//EN" "http://www.w3.org/Graphics/SVG/1.1/DTD/svg11.dtd">
<svg xmlns="http://www.w3.org/2000/svg" version="1.1" viewBox="0 0 55 55" stroke="none">
	<rect width="100%" height="100%" fill="#FFFFFF"/>
	<path d="M3,3h1v1h-1z M4,3h1v1h-1z M5,3h1v1h-1z M6,3h1v1h-1z M7,3h1v1h-1z M8,3h1v1h-1z M9,3h1v1h-1z M11,3h1v1h-1z M12,3h1v1h-1z M13,3h1v1h-1z M15,3h1v1h-1z M18,3h1v1h-1z M19,3h1v1h-1z M20,3h1v1h-1z M24,3h1v1h-1z M27,3h1v1h-1z M28,3h1v1h-1z M29,3h1v1h-1z M31,3h1v1h-1z M33,3h1v1h-1z M34,3h1v1h-1z M37,3h1v1h-1z M38,3h1v1h-1z M39,3h1v1h-1z M40,3h1v1h-1z M43,3h1v1h-1z M45,3h1v1h-1z M46,3h1v1h-1z M47,3h1v1h-1z M48,3h1v1h-1z M49,3h1v1h-1z M50,3h1v1h-1z M51,3h1v1h-1z M3,4h1v1h-1z M9,4h1v1h-1z M13,4h1v1h-1z M14,4h1v1h-1z M16,4h1v1h-1z M17,4h1v1h-1z M19,4h1v1h-1z M20,4h1v1h-1z M21,4h1v1h-1z M22,4h1v1h-1z M23,4h1v1h-1z M25,4h1v1h-1z M27,4h1v1h-1z M29,4h1v1h-1z M30,4h1v1h-1z M32,4h1v1h-1z M35,4h1v1h-1z M36,4h1v1h-1z M37,4h1v1h-1z M39,4h1v1h-1z M40,4h1v1h-1z M41,4h1v1h-1z M42,4h1v1h-1z M43,4h1v1h-1z M45,4h1v1h-1z M51,4h1v1h-1z M3,5h1v1h-1z M5,5h1v1h-1z M6,5h1v1h-1z M7,5h1v1h-1z M9,5h1v1h-1z M12,5h1v1h-1z M15,5h1v1h-1z M17,5h1v1h-1z M18,5h1v1h-1z M20,5h1v1h-1z M21,5h1v1h-1z M23,5h1v1h-1z M24,5h1v1h-1z M26,5h1v1h-1z M27,5h1v1h-1z M28,5h1v1h-1z M30,5h1v1h-1z M31,5h1v1h-1z M33,5h1v1h-1z M34,5h1v1h-1z M36,5h1v1h-1z M37,5h1v1h-1z M42,5h1v1h-1z M43,5h1v1h-1z M45,5h1v1h-1z M47,5h1v1h-1z M48,5h1v1h-1z M49,5h1v1h-1z M51,5h1v1h-1z M3,6h1v1h-1z M5,6h1v1h-1z M6,6h1v1h-1z M7,6h1v1h-1z M9,6h1v1h-1z M11,6h1v1h-1z M12,6h1v1h-1z M14,6h1v1h-1z M15,6h1v1h-1z M16,6h1v1h-1z M19,6h1v1h-1z M20,6h1v1h-1z M22,6h1v1h-1z M23,6h1v1h-1z M24,6h1v1h-1z M25,6h1v1h-1z M30,6h1v1h-1z M31,6h1v1h-1z M35,6h1v1h-1z M36,6h1v1h-1z M37,6h1v1h-1z M42,6h1v1h-1z M45,6h1v1h-1z M47,6h1v1h-1z M48,6h1v1h-1z M49,6h1v1h-1z M51,6h1v1h-1z M3,7h1v1h-1z M5,7h1v1h-1z M6,7h1v1h-1z M7,7h1v1h-1z M9,7h1v1h-1z M12,7h1v1h-1z M13,7h1v1h-1z M16,7h1v1h-1z M18,7h1v1h-1z M21,7h1v1h-1z M22,7h1v1h-1z M24,7h1v1h-1z M25,7h1v1h-1z M26,7h1v1h-1z M27,7h1v1h-1z M28,7h1v1h-1z M29,7h1v1h-1z M30,7h1v1h-1z M31,7h1v1h-1z M34,7h1v1h-1z M35,7h1v1h-1z M37,7h1v1h-1z M39,7h1v1h-1z M40,7h1v1h-1z M45,7h1v1h-1z M47,7h1v1h-1z M48,7h1v1h-1z M49,7h1v1h-1z M51,7h1v1h-1z M3,8h1v1h-1z M9,8h1v1h-1z M12,8h1v1h-1z M13,8h1v1h-1z M17,8h1v1h-1z M19,8h1v1h-1z M23,8h1v1h-1z M25,8h1v1h-1z M29,8h1v1h-1z M30,8h1v1h-1z M34,8h1v1h-1z M35,8h1v1h-1z M37,8h1v1h-1z M38,8h1v1h-1z M40,8h1v1h-1z M41,8h1v1h-1z M45,8h1v1h-1z M51,8h1v1h-1z M3,9h1v1h-1z M4,9h1v1h-1z M5,9h1v1h-1z M6,9h1v1h-1z M7,9h1v1h-1z M8,9h1v1h-1z M9,9h1v1h-1z M11,9h1v1h-1z M13,9h1v1h-1z M15,9h1v1h-1z M17,9h1v1h-1z M19,9h1v1h-1z M21,9h1v1h-1z M23,9h1v1h-1z M25,9h1v1h-1z M27,9h1v1h-1z M29,9h1v1h-1z M31,9h1v1h-1z M33,9h1v1h-1z M35,9h1v1h-1z M37,9h1v1h-1z M39,9h1v1h-1z M41,9h1v1h-1z M43,9h1v1h-1z M45,9h1v1h-1z M46,9h1v1h-1z M47,9h1v1h-1z M48,9h1v1h-1z M49,9h1v1h-1z M50,9h1v1h-1z M51,9h1v1h-1z M14,10h1v1h-1z M17,10h1v1h-1z M18,10h1v1h-1z M19,10h1v1h-1z M23,10h1v1h-1z M24,10h1v1h-1z M25,10h1v1h-1z M29,10h1v1h-1z M30,10h1v1h-1z M31,10h1v1h-1z M33,10h1v1h-1z M34,10h1v1h-1z M36,10h1v1h-1z M37,10h1v1h-1z M38,10h1v1h-1z M40,10h1v1h-1z M43,10h1v1h-1z M5,11h1v1h-1z M7,11h1v1h-1z M8,11h1v1h-1z M9,11h1v1h-1z M11,11h1v1h-1z M12,11h1v1h-1z M13,11h1v1h-1z M15,11h1v1h-1z M16,11h1v1h-1z M17,11h1v1h-1z M18,11h1v1h-1z M21,11h1v1h-1z M22,11h1v1h-1z M25,11h1v1h-1z M26,11h1v1h-1z M27,11h1v1h-1z M28,11h1v1h-1z M29,11h1v1h-1z M31,11h1v1h-1z M32,11h1v1h-1z M33,11h1v1h-1z M37,11h1v1h-1z M38,11h1v1h-1z M39,11h1v1h-1z M44,11h1v1h-1z M48,11h1v1h-1z M51,11h1v1h-1z M4,12h1v1h-1z M6,12h1v1h-1z M8,12h1v1h-1z M10,12h1v1h-1z M11,12h1v1h-1z M16,12h1v1h-1z M20,12h1v1h-1z M21,12h1v1h-1z M24,12h1v1h-1z M28,12h1v1h-1z M29,12h1v1h-1z M30,12h1v1h-1z M31,12h1v1h-1z M32,12h1v1h-1z M34,12h1v1h-1z M39,12h1v1h-1z M40,12h1v1h-1z M42,12h1v1h-1z M44,12h1v1h-1z M46,12h1v1h-1z M47,12h1v1h-1z M48,12h1v1h-1z M51,12h1v1h-1z M3,13h1v1h-1z M7,13h1v1h-1z M9,13h1v1h-1z M10,13h1v1h-1z M16,13h1v1h-1z M18,13h1v1h-1z M20,13h1v1h-1z M28,13h1v1h-1z M29,13h1v1h-1z M30,13h1v1h-1z M31,13h1v1h-1z M32,13h1v1h-1z M34,13h1v1h-1z M36,13h1v1h-1z M39,13h1v1h-1z M43,13h1v1h-1z M44,13h1v1h-1z M47,13h1v1h-1z M48,13h1v1h-1z M49,13h1v1h-1z M51,13h1v1h-1z M5,14h1v1h-1z M6,14h1v1h-1z M8,14h1v1h-1z M10,14h1v1h-1z M11,14h1v1h-1z M15,14h1v1h-1z M21,14h1v1h-1z M23,14h1v1h-1z M25,14h1v1h-1z M26,14h1v1h-1z M28,14h1v1h-1z M33,14h1v1h-1z M35,14h1v1h-1z M38,14h1v1h-1z M39,14h1v1h-1z M40,14h1v1h-1z M42,14h1v1h-1z M45,14h1v1h-1z M46,14h1v1h-1z M47,14h1v1h-1z M4,15h1v1h-1z M6,15h1v1h-1z M7,15h1v1h-1z M8,15h1v1h-1z M9,15h1v1h-1z M11,15h1v1h-1z M12,15h1v1h-1z M14,15h1v1h-1z M15,15h1v1h-1z M17,15h1v1h-1z M20,15h1v1h-1z M21,15h1v1h-1z M22,15h1v1h-1z M23,15h1v1h-1z M24,15h1v1h-1z M25,15h1v1h-1z M26,15h1v1h-1z M29,15h1v1h-1z M30,15h1v1h-1z M31,15h1v1h-1z M33,15h1v1h-1z M36,15h1v1h-1z M37,15h1v1h-1z M39,15h1v1h-1z M41,15h1v1h-1z M46,15h1v1h-1z M47,15h1v1h-1z M48,15h1v1h-1z M51,15h1v1h-1z M3,16h1v1h-1z M6,16h1v1h-1z M7,16h1v1h-1z M11,16h1v1h-1z M14,16h1v1h-1z M16,16h1v1h-1z M18,16h1v1h-1z M21,16h1v1h-1z M25,16h1v1h-1z M26,16h1v1h-1z M29,16h1v1h-1z M30,16h1v1h-1z M31,16h1v1h-1z M33,16h1v1h-1z M34,16h1v1h-1z M36,16h1v1h-1z M38,16h1v1h-1z M39,16h1v1h-1z M42,16h1v1h-1z M44,16h1v1h-1z M46,16h1v1h-1z M48,16h1v1h-1z M50,16h1v1h-1z M51,16h1v1h-1z M4,17h1v1h-1z M5,17h1v1h-1z M6,17h1v1h-1z M7,17h1v1h-1z M9,17h1v1h-1z M10,17h1v1h-1z M11,17h1v1h-1z M12,17h1v1h-1z M13,17h1v1h-1z M14,17h1v1h-1z M18,17h1v1h-1z M19,17h1v1h-1z M22,17h1v1h-1z M23,17h1v1h-1z M24,17h1v1h-1z M25,17h1v1h-1z M27,17h1v1h-1z M33,17h1v1h-1z M36,17h1v1h-1z M38,17h1v1h-1z M47,17h1v1h-1z M48,17h1v1h-1z M50,17h1v1h-1z M51,17h1v1h-1z M3,18h1v1h-1z M4,18h1v1h-1z M7,18h1v1h-1z M8,18h1v1h-1z M10,18h1v1h-1z M12,18h1v1h-1z M22,18h1v1h-1z M24,18h1v1h-1z M25,18h1v1h-1z M26,18h1v1h-1z M27,18h1v1h-1z M32,18h1v1h-1z M34,18h1v1h-1z M36,18h1v1h-1z M39,18h1v1h-1z M40,18h1v1h-1z M42,18h1v1h-1z M43,18h1v1h-1z M44,18h1v1h-1z M46,18h1v1h-1z M47,18h1v1h-1z M50,18h1v1h-1z M51,18h1v1h-1z M5,19h1v1h-1z M6,19h1v1h-1z M7,19h1v1h-1z M9,19h1v1h-1z M10,19h1v1h-1z M11,19h1v1h-1z M12,19h1v1h-1z M13,19h1v1h-1z M14,19h1v1h-1z M19,19h1v1h-1z M20,19h1v1h-1z M21,19h1v1h-1z M22,19h1v1h-1z M23,19h1v1h-1z M25,19h1v1h-1z M26,19h1v1h-1z M30,19h1v1h-1z M35,19h1v1h-1z M36,19h1v1h-1z M37,19h1v1h-1z M38,19h1v1h-1z M39,19h1v1h-1z M42,19h1v1h-1z M44,19h1v1h-1z M45,19h1v1h-1z M46,19h1v1h-1z M47,19h1v1h-1z M48,19h1v1h-1z M50,19h1v1h-1z M3,20h1v1h-1z M4,20h1v1h-1z M5,20h1v1h-1z M7,20h1v1h-1z M10,20h1v1h-1z M11,20h1v1h-1z M13,20h1v1h-1z M14,20h1v1h-1z M15,20h1v1h-1z M30,20h1v1h-1z M31,20h1v1h-1z M32,20h1v1h-1z M34,20h1v1h-1z M35,20h1v1h-1z M36,20h1v1h-1z M40,20h1v1h-1z M42,20h1v1h-1z M47,20h1v1h-1z M48,20h1v1h-1z M49,20h1v1h-1z M50,20h1v1h-1z M51,20h1v1h-1z M4,21h1v1h-1z M8,21h1v1h-1z M9,21h1v1h-1z M10,21h1v1h-1z M16,21h1v1h-1z M17,21h1v1h-1z M23,21h1v1h-1z M24,21h1v1h-1z M25,21h1v1h-1z M26,21h1v1h-1z M27,21h1v1h-1z M28,21h1v1h-1z M29,21h1v1h-1z M30,21h1v1h-1z M31,21h1v1h-1z M32,21h1v1h-1z M34,21h1v1h-1z M35,21h1v1h-1z M37,21h1v1h-1z M38,21h1v1h-1z M39,21h1v1h-1z M40,21h1v1h-1z M42,21h1v1h-1z M43,21h1v1h-1z M47,21h1v1h-1z M49,21h1v1h-1z M50,21h1v1h-1z M51,21h1v1h-1z M4,22h1v1h-1z M5,22h1v1h-1z M6,22h1v1h-1z M7,22h1v1h-1z M8,22h1v1h-1z M12,22h1v1h-1z M13,22h1v1h-1z M14,22h1v1h-1z M18,22h1v1h-1z M19,22h1v1h-1z M20,22h1v1h-1z M23,22h1v1h-1z M24,22h1v1h-1z M26,22h1v1h-1z M27,22h1v1h-1z M28,22h1v1h-1z M29,22h1v1h-1z M30,22h1v1h-1z M33,22h1v1h-1z M36,22h1v1h-1z M37,22h1v1h-1z M39,22h1v1h-1z M41,22h1v1h-1z M44,22h1v1h-1z M47,22h1v1h-1z M50,22h1v1h-1z M5,23h1v1h-1z M6,23h1v1h-1z M7,23h1v1h-1z M8,23h1v1h-1z M9,23h1v1h-1z M10,23h1v1h-1z M13,23h1v1h-1z M20,23h1v1h-1z M21,23h1v1h-1z M25,23h1v1h-1z M26,23h1v1h-1z M28,23h1v1h-1z M30,23h1v1h-1z M31,23h1v1h-1z M33,23h1v1h-1z M35,23h1v1h-1z M36,23h1v1h-1z M37,23h1v1h-1z M39,23h1v1h-1z M40,23h1v1h-1z M42,23h1v1h-1z M45,23h1v1h-1z M46,23h1v1h-1z M47,23h1v1h-1z M48,23h1v1h-1z M3,24h1v1h-1z M4,24h1v1h-1z M5,24h1v1h-1z M6,24h1v1h-1z M7,24h1v1h-1z M8,24h1v1h-1z M13,24h1v1h-1z M16,24h1v1h-1z M17,24h1v1h-1z M18,24h1v1h-1z M20,24h1v1h-1z M23,24h1v1h-1z M24,24h1v1h-1z M25,24h1v1h-1z M28,24h1v1h-1z M29,24h1v1h-1z M33,24h1v1h-1z M35,24h1v1h-1z M36,24h1v1h-1z M39,24h1v1h-1z M40,24h1v1h-1z M42,24h1v1h-1z M46,24h1v1h-1z M48,24h1v1h-1z M50,24h1v1h-1z M51,24h1v1h-1z M5,25h1v1h-1z M6,25h1v1h-1z M7,25h1v1h-1z M8,25h1v1h-1z M9,25h1v1h-1z M10,25h1v1h-1z M11,25h1v1h-1z M13,25h1v1h-1z M18,25h1v1h-1z M19,25h1v1h-1z M21,25h1v1h-1z M22,25h1v1h-1z M24,25h1v1h-1z M25,25h1v1h-1z M26,25h1v1h-1z M27,25h1v1h-1z M28,25h1v1h-1z M29,25h1v1h-1z M33,25h1v1h-1z M34,25h1v1h-1z M35,25h1v1h-1z M43,25h1v1h-1z M44,25h1v1h-1z M45,25h1v1h-1z M46,25h1v1h-1z M47,25h1v1h-1z M48,25h1v1h-1z M49,25h1v1h-1z M50,25h1v1h-1z M51,25h1v1h-1z M4,26h1v1h-1z M6,26h1v1h-1z M7,26h1v1h-1z M11,26h1v1h-1z M12,26h1v1h-1z M13,26h1v1h-1z M16,26h1v1h-1z M17,26h1v1h-1z M22,26h1v1h-1z M23,26h1v1h-1z M25,26h1v1h-1z M29,26h1v1h-1z M30,26h1v1h-1z M33,26h1v1h-1z M34,26h1v1h-1z M37,26h1v1h-1z M38,26h1v1h-1z M39,26h1v1h-1z M41,26h1v1h-1z M43,26h1v1h-1z M47,26h1v1h-1z M4,27h1v1h-1z M6,27h1v1h-1z M7,27h1v1h-1z M9,27h1v1h-1z M11,27h1v1h-1z M13,27h1v1h-1z M15,27h1v1h-1z M17,27h1v1h-1z M19,27h1v1h-1z M21,27h1v1h-1z M23,27h1v1h-1z M25,27h1v1h-1z M27,27h1v1h-1z M29,27h1v1h-1z M30,27h1v1h-1z M33,27h1v1h-1z M34,27h1v1h-1z M36,27h1v1h-1z M38,27h1v1h-1z M39,27h1v1h-1z M43,27h1v1h-1z M45,27h1v1h-1z M47,27h1v1h-1z M48,27h1v1h-1z M51,27h1v1h-1z M4,28h1v1h-1z M7,28h1v1h-1z M11,28h1v1h-1z M12,28h1v1h-1z M13,28h1v1h-1z M14,28h1v1h-1z M15,28h1v1h-1z M16,28h1v1h-1z M19,28h1v1h-1z M20,28h1v1h-1z M21,28h1v1h-1z M25,28h1v1h-1z M29,28h1v1h-1z M32,28h1v1h-1z M33,28h1v1h-1z M34,28h1v1h-1z M35,28h1v1h-1z M39,28h1v1h-1z M42,28h1v1h-1z M43,28h1v1h-1z M47,28h1v1h-1z M51,28h1v1h-1z M3,29h1v1h-1z M4,29h1v1h-1z M7,29h1v1h-1z M8,29h1v1h-1z M9,29h1v1h-1z M10,29h1v1h-1z M11,29h1v1h-1z M12,29h1v1h-1z M14,29h1v1h-1z M15,29h1v1h-1z M16,29h1v1h-1z M18,29h1v1h-1z M19,29h1v1h-1z M21,29h1v1h-1z M22,29h1v1h-1z M23,29h1v1h-1z M24,29h1v1h-1z M25,29h1v1h-1z M26,29h1v1h-1z M27,29h1v1h-1z M28,29h1v1h-1z M29,29h1v1h-1z M31,29h1v1h-1z M33,29h1v1h-1z M34,29h1v1h-1z M36,29h1v1h-1z M38,29h1v1h-1z M42,29h1v1h-1z M43,29h1v1h-1z M44,29h1v1h-1z M45,29h1v1h-1z M46,29h1v1h-1z M47,29h1v1h-1z M49,29h1v1h-1z M50,29h1v1h-1z M51,29h1v1h-1z M3,30h1v1h-1z M5,30h1v1h-1z M6,30h1v1h-1z M11,30h1v1h-1z M13,30h1v1h-1z M14,30h1v1h-1z M16,30h1v1h-1z M19,30h1v1h-1z M20,30h1v1h-1z M21,30h1v1h-1z M22,30h1v1h-1z M24,30h1v1h-1z M26,30h1v1h-1z M27,30h1v1h-1z M29,30h1v1h-1z M30,30h1v1h-1z M31,30h1v1h-1z M33,30h1v1h-1z M34,30h1v1h-1z M35,30h1v1h-1z M36,30h1v1h-1z M39,30h1v1h-1z M45,30h1v1h-1z M48,30h1v1h-1z M3,31h1v1h-1z M6,31h1v1h-1z M7,31h1v1h-1z M9,31h1v1h-1z M13,31h1v1h-1z M16,31h1v1h-1z M18,31h1v1h-1z M19,31h1v1h-1z M23,31h1v1h-1z M25,31h1v1h-1z M27,31h1v1h-1z M28,31h1v1h-1z M29,31h1v1h-1z M31,31h1v1h-1z M32,31h1v1h-1z M34,31h1v1h-1z M35,31h1v1h-1z M38,31h1v1h-1z M39,31h1v1h-1z M40,31h1v1h-1z M41,31h1v1h-1z M43,31h1v1h-1z M45,31h1v1h-1z M48,31h1v1h-1z M51,31h1v1h-1z M3,32h1v1h-1z M6,32h1v1h-1z M7,32h1v1h-1z M12,32h1v1h-1z M17,32h1v1h-1z M18,32h1v1h-1z M21,32h1v1h-1z M27,32h1v1h-1z M28,32h1v1h-1z M29,32h1v1h-1z M30,32h1v1h-1z M32,32h1v1h-1z M33,32h1v1h-1z M36,32h1v1h-1z M40,32h1v1h-1z M50,32h1v1h-1z M51,32h1v1h-1z M3,33h1v1h-1z M4,33h1v1h-1z M6,33h1v1h-1z M7,33h1v1h-1z M9,33h1v1h-1z M11,33h1v1h-1z M14,33h1v1h-1z M16,33h1v1h-1z M18,33h1v1h-1z M19,33h1v1h-1z M20,33h1v1h-1z M22,33h1v1h-1z M25,33h1v1h-1z M27,33h1v1h-1z M28,33h1v1h-1z M31,33h1v1h-1z M32,33h1v1h-1z M33,33h1v1h-1z M34,33h1v1h-1z M36,33h1v1h-1z M39,33h1v1h-1z M40,33h1v1h-1z M43,33h1v1h-1z M44,33h1v1h-1z M45,33h1v1h-1z M46,33h1v1h-1z M48,33h1v1h-1z M49,33h1v1h-1z M50,33h1v1h-1z M51,33h1v1h-1z M3,34h1v1h-1z M4,34h1v1h-1z M6,34h1v1h-1z M7,34h1v1h-1z M8,34h1v1h-1z M11,34h1v1h-1z M12,34h1v1h-1z M13,34h1v1h-1z M14,34h1v1h-1z M17,34h1v1h-1z M18,34h1v1h-1z M19,34h1v1h-1z M20,34h1v1h-1z M22,34h1v1h-1z M23,34h1v1h-1z M25,34h1v1h-1z M28,34h1v1h-1z M29,34h1v1h-1z M39,34h1v1h-1z M43,34h1v1h-1z M45,34h1v1h-1z M46,34h1v1h-1z M47,34h1v1h-1z M48,34h1v1h-1z M51,34h1v1h-1z M4,35h1v1h-1z M7,35h1v1h-1z M9,35h1v1h-1z M13,35h1v1h-1z M16,35h1v1h-1z M17,35h1v1h-1z M18,35h1v1h-1z M20,35h1v1h-1z M24,35h1v1h-1z M25,35h1v1h-1z M26,35h1v1h-1z M27,35h1v1h-1z M28,35h1v1h-1z M29,35h1v1h-1z M31,35h1v1h-1z M35,35h1v1h-1z M37,35h1v1h-1z M39,35h1v1h-1z M48,35h1v1h-1z M51,35h1v1h-1z M4,36h1v1h-1z M6,36h1v1h-1z M8,36h1v1h-1z M10,36h1v1h-1z M11,36h1v1h-1z M13,36h1v1h-1z M16,36h1v1h-1z M18,36h1v1h-1z M20,36h1v1h-1z M23,36h1v1h-1z M25,36h1v1h-1z M27,36h1v1h-1z M28,36h1v1h-1z M32,36h1v1h-1z M36,36h1v1h-1z M43,36h1v1h-1z M44,36h1v1h-1z M48,36h1v1h-1z M51,36h1v1h-1z M5,37h1v1h-1z M6,37h1v1h-1z M8,37h1v1h-1z M9,37h1v1h-1z M13,37h1v1h-1z M14,37h1v1h-1z M15,37h1v1h-1z M16,37h1v1h-1z M18,37h1v1h-1z M19,37h1v1h-1z M24,37h1v1h-1z M29,37h1v1h-1z M32,37h1v1h-1z M33,37h1v1h-1z M35,37h1v1h-1z M36,37h1v1h-1z M38,37h1v1h-1z M39,37h1v1h-1z M40,37h1v1h-1z M42,37h1v1h-1z M44,37h1v1h-1z M45,37h1v1h-1z M46,37h1v1h-1z M47,37h1v1h-1z M51,37h1v1h-1z M3,38h1v1h-1z M4,38h1v1h-1z M5,38h1v1h-1z M7,38h1v1h-1z M10,38h1v1h-1z M11,38h1v1h-1z M13,38h1v1h-1z M15,38h1v1h-1z M17,38h1v1h-1z M19,38h1v1h-1z M20,38h1v1h-1z M21,38h1v1h-1z M23,38h1v1h-1z M24,38h1v1h-1z M28,38h1v1h-1z M30,38h1v1h-1z M33,38h1v1h-1z M34,38h1v1h-1z M36,38h1v1h-1z M38,38h1v1h-1z M39,38h1v1h-1z M43,38h1v1h-1z M44,38h1v1h-1z M45,38h1v1h-1z M46,38h1v1h-1z M3,39h1v1h-1z M4,39h1v1h-1z M5,39h1v1h-1z M6,39h1v1h-1z M8,39h1v1h-1z M9,39h1v1h-1z M11,39h1v1h-1z M12,39h1v1h-1z M14,39h1v1h-1z M16,39h1v1h-1z M19,39h1v1h-1z M20,39h1v1h-1z M22,39h1v1h-1z M25,39h1v1h-1z M26,39h1v1h-1z M27,39h1v1h-1z M28,39h1v1h-1z M30,39h1v1h-1z M31,39h1v1h-1z M34,39h1v1h-1z M35,39h1v1h-1z M38,39h1v1h-1z M39,39h1v1h-1z M41,39h1v1h-1z M43,39h1v1h-1z M46,39h1v1h-1z M51,39h1v1h-1z M6,40h1v1h-1z M8,40h1v1h-1z M10,40h1v1h-1z M12,40h1v1h-1z M14,40h1v1h-1z M15,40h1v1h-1z M18,40h1v1h-1z M19,40h1v1h-1z M20,40h1v1h-1z M21,40h1v1h-1z M22,40h1v1h-1z M24,40h1v1h-1z M27,40h1v1h-1z M30,40h1v1h-1z M32,40h1v1h-1z M33,40h1v1h-1z M34,40h1v1h-1z M36,40h1v1h-1z M42,40h1v1h-1z M46,40h1v1h-1z M50,40h1v1h-1z M51,40h1v1h-1z M4,41h1v1h-1z M8,41h1v1h-1z M9,41h1v1h-1z M10,41h1v1h-1z M11,41h1v1h-1z M13,41h1v1h-1z M14,41h1v1h-1z M24,41h1v1h-1z M26,41h1v1h-1z M28,41h1v1h-1z M29,41h1v1h-1z M32,41h1v1h-1z M33,41h1v1h-1z M35,41h1v1h-1z M36,41h1v1h-1z M39,41h1v1h-1z M45,41h1v1h-1z M46,41h1v1h-1z M48,41h1v1h-1z M49,41h1v1h-1z M50,41h1v1h-1z M51,41h1v1h-1z M4,42h1v1h-1z M5,42h1v1h-1z M6,42h1v1h-1z M10,42h1v1h-1z M12,42h1v1h-1z M14,42h1v1h-1z M17,42h1v1h-1z M21,42h1v1h-1z M24,42h1v1h-1z M26,42h1v1h-1z M27,42h1v1h-1z M29,42h1v1h-1z M37,42h1v1h-1z M38,42h1v1h-1z M39,42h1v1h-1z M40,42h1v1h-1z M45,42h1v1h-1z M3,43h1v1h-1z M4,43h1v1h-1z M5,43h1v1h-1z M9,43h1v1h-1z M12,43h1v1h-1z M13,43h1v1h-1z M15,43h1v1h-1z M16,43h1v1h-1z M19,43h1v1h-1z M20,43h1v1h-1z M21,43h1v1h-1z M22,43h1v1h-1z M25,43h1v1h-1z M26,43h1v1h-1z M27,43h1v1h-1z M28,43h1v1h-1z M29,43h1v1h-1z M33,43h1v1h-1z M34,43h1v1h-1z M35,43h1v1h-1z M38,43h1v1h-1z M39,43h1v1h-1z M41,43h1v1h-1z M43,43h1v1h-1z M44,43h1v1h-1z M45,43h1v1h-1z M46,43h1v1h-1z M47,43h1v1h-1z M50,43h1v1h-1z M51,43h1v1h-1z M11,44h1v1h-1z M13,44h1v1h-1z M15,44h1v1h-1z M17,44h1v1h-1z M21,44h1v1h-1z M22,44h1v1h-1z M24,44h1v1h-1z M25,44h1v1h-1z M29,44h1v1h-1z M30,44h1v1h-1z M33,44h1v1h-1z M37,44h1v1h-1z M38,44h1v1h-1z M40,44h1v1h-1z M43,44h1v1h-1z M47,44h1v1h-1z M50,44h1v1h-1z M51,44h1v1h-1z M3,45h1v1h-1z M4,45h1v1h-1z M5,45h1v1h-1z M6,45h1v1h-1z M7,45h1v1h-1z M8,45h1v1h-1z M9,45h1v1h-1z M12,45h1v1h-1z M14,45h1v1h-1z M15,45h1v1h-1z M16,45h1v1h-1z M19,45h1v1h-1z M22,45h1v1h-1z M24,45h1v1h-1z M25,45h1v1h-1z M27,45h1v1h-1z M29,45h1v1h-1z M30,45h1v1h-1z M34,45h1v1h-1z M37,45h1v1h-1z M38,45h1v1h-1z M39,45h1v1h-1z M42,45h1v1h-1z M43,45h1v1h-1z M45,45h1v1h-1z M47,45h1v1h-1z M49,45h1v1h-1z M50,45h1v1h-1z M51,45h1v1h-1z M3,46h1v1h-1z M9,46h1v1h-1z M11,46h1v1h-1z M12,46h1v1h-1z M17,46h1v1h-1z M18,46h1v1h-1z M20,46h1v1h-1z M25,46h1v1h-1z M29,46h1v1h-1z M30,46h1v1h-1z M31,46h1v1h-1z M35,46h1v1h-1z M37,46h1v1h-1z M38,46h1v1h-1z M39,46h1v1h-1z M41,46h1v1h-1z M42,46h1v1h-1z M43,46h1v1h-1z M47,46h1v1h-1z M51,46h1v1h-1z M3,47h1v1h-1z M5,47h1v1h-1z M6,47h1v1h-1z M7,47h1v1h-1z M9,47h1v1h-1z M11,47h1v1h-1z M12,47h1v1h-1z M13,47h1v1h-1z M15,47h1v1h-1z M16,47h1v1h-1z M17,47h1v1h-1z M18,47h1v1h-1z M21,47h1v1h-1z M23,47h1v1h-1z M25,47h1v1h-1z M26,47h1v1h-1z M27,47h1v1h-1z M28,47h1v1h-1z M29,47h1v1h-1z M31,47h1v1h-1z M32,47h1v1h-1z M35,47h1v1h-1z M39,47h1v1h-1z M40,47h1v1h-1z M43,47h1v1h-1z M44,47h1v1h-1z M45,47h1v1h-1z M46,47h1v1h-1z M47,47h1v1h-1z M48,47h1v1h-1z M50,47h1v1h-1z M51,47h1v1h-1z M3,48h1v1h-1z M5,48h1v1h-1z M6,48h1v1h-1z M7,48h1v1h-1z M9,48h1v1h-1z M13,48h1v1h-1z M17,48h1v1h-1z M18,48h1v1h-1z M19,48h1v1h-1z M20,48h1v1h-1z M21,48h1v1h-1z M29,48h1v1h-1z M31,48h1v1h-1z M32,48h1v1h-1z M33,48h1v1h-1z M34,48h1v1h-1z M42,48h1v1h-1z M43,48h1v1h-1z M47,48h1v1h-1z M3,49h1v1h-1z M5,49h1v1h-1z M6,49h1v1h-1z M7,49h1v1h-1z M9,49h1v1h-1z M11,49h1v1h-1z M12,49h1v1h-1z M15,49h1v1h-1z M16,49h1v1h-1z M17,49h1v1h-1z M18,49h1v1h-1z M24,49h1v1h-1z M25,49h1v1h-1z M26,49h1v1h-1z M27,49h1v1h-1z M30,49h1v1h-1z M31,49h1v1h-1z M36,49h1v1h-1z M38,49h1v1h-1z M43,49h1v1h-1z M44,49h1v1h-1z M45,49h1v1h-1z M46,49h1v1h-1z M47,49h1v1h-1z M49,49h1v1h-1z M50,49h1v1h-1z M51,49h1v1h-1z M3,50h1v1h-1z M9,50h1v1h-1z M12,50h1v1h-1z M14,50h1v1h-1z M15,50h1v1h-1z M18,50h1v1h-1z M19,50h1v1h-1z M23,50h1v1h-1z M27,50h1v1h-1z M34,50h1v1h-1z M35,50h1v1h-1z M36,50h1v1h-1z M38,50h1v1h-1z M39,50h1v1h-1z M40,50h1v1h-1z M42,50h1v1h-1z M43,50h1v1h-1z M44,50h1v1h-1z M47,50h1v1h-1z M50,50h1v1h-1z M3,51h1v1h-1z M4,51h1v1h-1z M5,51h1v1h-1z M6,51h1v1h-1z M7,51h1v1h-1z M8,51h1v1h-1z M9,51h1v1h-1z M15,51h1v1h-1z M16,51h1v1h-1z M17,51h1v1h-1z M19,51h1v1h-1z M22,51h1v1h-1z M25,51h1v1h-1z M26,51h1v1h-1z M27,51h1v1h-1z M28,51h1v1h-1z M31,51h1v1h-1z M33,51h1v1h-1z M34,51h1v1h-1z M35,51h1v1h-1z M36,51h1v1h-1z M38,51h1v1h-1z M39,51h1v1h-1z M40,51h1v1h-1z M42,51h1v1h-1z M44,51h1v1h-1z M46,51h1v1h-1z M48,51h1v1h-1z M50,51h1v1h-1z M51,51h1v1h-1z" fill="#000000"/>
</svg>
